<svg width="61" height="128" fill="none" xmlns="http://www.w3.org/2000/svg"><path d="M35.62 3.857c.924.132 1.85.233-.353-1.235-7.075-4.717-19.688 8.097-22.596 12.71C6.43 25.234-5.274 51.678 8.258 60.7c4.738 3.158 12.608 3.867 17.83 1.588 2.839-1.239 6.656-4.49 1.588-5.649-26.964-6.163-34.372 70.539 11.828 46.339 4.08-2.137 13.62-6.252 15.71-11.033 1.518-3.467-7.12 3.061-9.797 5.737-3.95 3.95-7.05 10.878-6.443 16.506 1.352 12.534 10.94 12.004 20.477 12.004" stroke="#705A66" stroke-width="3" stroke-linecap="round"/></svg>