<svg width="643" height="308" fill="none" xmlns="http://www.w3.org/2000/svg"><g clip-path="url(#clip0_11_76)" stroke="#F5F7F8" stroke-width="3" stroke-linecap="round"><path d="M113.749 143.829c15.936-12.453 42.798-27.007 49.724-47.784 2.845-8.536-3.174-14.118-11.726-12.871-16.173 2.358-26.312 21.972-32.355 35.088-12.739 27.647-21.459 57.322-30.857 86.223-6.993 21.503-14.203 43.53-27.154 62.33-9.172 13.314-27.85 32.509-46.02 29.182-26.253-4.807-13.204-32.523-2.293-45.139 22.098-25.551 52.099-41.099 81.638-56.247"/><path d="M115.336 180.328c-.781-3.906-3.267 7.292-4.408 11.109-1.736 5.81-3.527 12.219-3.527 18.337 0 6.31 5.473-11.4 8.817-16.75 7.674-12.28 13.969-22.758 27.683-26.978m4.76 14.282c-1.519-1.012-4.971 13.047 8.993 5.026 7.165-4.117 19.034-12.222 21.423-20.718 2.676-9.513-11.547-2.432-14.458-.794-4.986 2.804-15.362 10.607-11.461 17.809 4.476 8.264 20.191 1.606 25.478-1.675 7.775-4.826 18.879-13.799 23.275-22.041 0 0-5.276 3.336-6.259 6.612-5.318 17.725 11.991 4.681 18.073-.088 1.018-.798 14.959-11.622 15.164-10.05.284 2.177-4.007 7.55-1.764 9.345 7.029 5.623 29.422-14.581 35.089-17.28.469-.223 1.64 4.153 2.997 4.585 10.239 3.257 27.742-5.925 37.381-8.817m70.929-39.092c-11.446 6.469-29.245 17.393-41.612 5.818-26.699-24.987 21.129-72.88 41.083-84.282 6.665-3.809 21.23-9.912 27.331-1.411 4.147 5.779 1.449 16.028.352 21.952-2.866 15.476-6.857 30.838-11.284 45.933-6.591 22.469-14.87 44.608-25.479 65.504-6.156 12.125-19.993 40.682-31.915 16.839-17.761-35.522 31.058-71.343 61.096-80.227 27.658-8.18 5.793 26.352-1.763 36.146-1.385 1.795 4.198-12.917 4.761-14.106 4.546-9.597 9.163-23.535 17.985-30.24 7.691-5.845 19.535-5.612 18.161 5.378m14.283-6.348c-3.415 1.438-9.743 17.005-6.701 16.751 6.475-.539 17.196-19.18 19.572-23.98 6.07-12.257-2.608-12.423-9.698-4.408-3.023 3.418-15.457 27.107-.705 21.512 6.256-2.373 16.029-20.692 14.106-14.283-4.168 13.893 19.872-7.826 21.512-9.345 7.902-7.32 5.466-10.448 5.466-2.468 0 7.953 3.646 4.432 7.493.97 5.43-4.887 18.082-21.722 16.31-14.635-1.871 7.485.901 7.232 6.524 2.733 6.989-5.592 12.803-12.607 20.189-17.72 1.555-1.077-.711 6.24 5.026 3.261 9.303-4.83 15.534-14.203 24.861-18.867 2.925-1.462-7.048 12.743-.44 10.05 12.944-5.273 22.223-17.208 32.531-26.095C607.154 3.627 615.464 2.246 621.08 0M165.893 284.677c-4.725 4.724.737-1.356 1.94-2.822 5.64-6.874 11.258-14.947 18.337-20.453 3.419-2.659-9.008 20.387-2.468 19.66 5.3-.589 17.472-15.916 20.63-14.194 4.973 2.712 16.94-10.593 20.277-13.93m17.456-7.934c-.248 3.217-1.011 6.353-1.587 9.521m3.174-28.564c-1.933-.322 4.281-1.507 4.761-1.587m34.912-33.325c-.708-3.187-2.79 5.915-3.879 8.992-4.472 12.626-8.661 25.383-13.401 37.91-3.472 9.175-5.589 17.922-2.469 3.879.829-3.731 3.336-18.608-1.498-20.542-.05-.02 3.834-1.703 4.496-2.028 6.613-3.246 13.282-6.484 19.131-11.02 9.809-7.607 21.774-22.072 22.305-35.353.167-4.18-3.62 7.554-5.113 11.461-5.604 14.664-10.141 29.689-15.517 44.434-.094.259-7.2 21.105-5.554 20.718 3.656-.86 4.836-5.784 6.788-8.993 5.098-8.375 9.24-17.628 15.164-25.478 5.536-7.336 2.996 1.674 6.965 2.468 6.826 1.365 16.906-8.92 21.776-12.166M429.852 125c-19.17 13.506-29.592 35.912-39.408 56.424-9.073 18.958-18.681 37.888-30.416 55.365-8.525 12.697-19.408 26.929-35.882 28.741-15.347 1.688-23.205-14.218-11.549-24.156 12.093-10.311 30.28-19.659 45.844-11.814 10.703 5.395 14.199 10.013 25.391 3.174 10.458-6.392 18.903-16.149 26.624-25.479 4.692-5.669.159 5.138 5.378 6.965 9.098 3.184 21.046-17.203 23.892-23.01 11.509-23.478-27.053 15.084-15.164 17.544 6.24 1.291 17.927-15.061 21.512-19.219 6.827-7.92-.739-.563 5.466.264 7.157.954 15.088-7.833 19.219-12.431 6.595-7.34 7.133-12.843 4.232-1.41-2.644 10.419 2.066 7.733 6.348.705a360.958 360.958 0 009.698-16.927c2.165-4.031 1.586-2.646 2.292.176m26.977-9.521c8.216-9.243-4.608-3.585-7.229 2.821-2.659 6.499 8.451 3.414 10.579 2.733 12.867-4.117 22.655-11.841 33.149-19.837"/></g><defs><clipPath id="clip0_11_76"><path fill="#fff" d="M0 0h643v308H0z"/></clipPath></defs></svg>