<svg width="34" height="34" fill="none" xmlns="http://www.w3.org/2000/svg"><path d="M33.905 9.99c-.082-1.81-.374-3.048-.79-4.13-.434-1.117-1.013-2.07-1.958-3.009-.945-.939-1.89-1.53-3.006-1.96C27.069.47 25.83.185 24.022.103 22.206.02 21.628 0 17.017 0c-4.618 0-5.196.02-7.005.102-1.81.082-3.047.374-4.129.79-1.122.435-2.074 1.014-3.013 1.96-.938.945-1.53 1.891-1.959 3.007C.496 6.942.204 8.18.122 9.99.041 11.807.02 12.386.02 17c0 4.62.02 5.2.102 7.01.082 1.81.374 3.048.79 4.13.435 1.117 1.013 2.07 1.958 3.008a8.195 8.195 0 003.006 1.96c1.082.422 2.32.708 4.129.79 1.816.082 2.394.102 7.005.102 4.618 0 5.196-.02 7.006-.102 1.809-.082 3.047-.374 4.128-.79 1.115-.435 2.068-1.014 3.006-1.96.939-.945 1.53-1.891 1.959-3.008.422-1.082.707-2.32.789-4.13.082-1.817.102-2.396.102-7.01s-.014-5.2-.095-7.01zM30.85 23.873c-.075 1.661-.354 2.566-.585 3.158a5.294 5.294 0 01-1.279 1.96c-.598.6-1.163.96-1.958 1.28-.599.231-1.503.51-3.156.585-1.789.081-2.326.102-6.87.102-4.543 0-5.08-.02-6.869-.102-1.66-.075-2.564-.354-3.156-.585a5.29 5.29 0 01-1.959-1.28c-.598-.599-.959-1.163-1.278-1.96-.232-.599-.51-1.504-.585-3.157-.082-1.79-.102-2.328-.102-6.874 0-4.546.02-5.084.102-6.873.075-1.661.353-2.566.585-3.158.306-.79.68-1.361 1.278-1.96.599-.6 1.163-.96 1.96-1.28.598-.231 1.502-.51 3.155-.585 1.789-.082 2.326-.102 6.87-.102 4.543 0 5.08.02 6.869.102 1.66.075 2.564.354 3.156.585.788.307 1.36.68 1.958 1.28.599.599.96 1.164 1.279 1.96.231.599.51 1.504.585 3.157.082 1.79.102 2.328.102 6.874 0 4.546-.027 5.084-.102 6.873z" fill="#fff"/><path d="M17.003 8.262c-4.829 0-8.733 3.913-8.733 8.738a8.732 8.732 0 008.733 8.738c4.822 0 8.733-3.92 8.733-8.738a8.728 8.728 0 00-8.733-8.738zm0 14.407a5.668 5.668 0 01-5.666-5.67 5.668 5.668 0 015.666-5.668A5.668 5.668 0 0122.669 17a5.668 5.668 0 01-5.666 5.669zm9.073-12.706a2.041 2.041 0 100-4.082 2.041 2.041 0 000 4.082z" fill="#fff"/><path d="M0 17c0 4.62.02 5.2.102 7.01.082 1.81.374 3.048.789 4.13.435 1.117 1.013 2.07 1.959 3.008a8.283 8.283 0 003.006 1.96c1.081.422 2.32.708 4.128.79C11.8 33.98 12.38 34 16.99 34c4.618 0 5.196-.02 7.005-.102 1.81-.082 3.047-.374 4.129-.79 1.115-.435 2.067-1.014 3.006-1.96a8.288 8.288 0 001.959-3.008c.421-1.082.707-2.32.789-4.13.081-1.817.102-2.396.102-7.01 0-4.62-.02-5.2-.102-7.01-.082-1.81-.374-3.048-.79-4.13-.435-1.117-1.013-2.07-1.958-3.009a8.117 8.117 0 00-3-1.96C27.05.47 25.811.185 24.002.103 22.186.02 21.608 0 16.997 0 12.379 0 11.8.02 9.99.102c-1.809.082-3.047.374-4.128.79-1.116.435-2.068 1.014-3.006 1.96-.939.945-1.53 1.891-1.96 3.007C.478 6.942.185 8.18.103 9.99.02 11.8 0 12.38 0 17zm3.067 0c0-4.54.02-5.084.102-6.873.075-1.661.354-2.566.585-3.158.306-.79.68-1.361 1.279-1.96.599-.6 1.163-.96 1.959-1.28.598-.231 1.503-.51 3.156-.585 1.788-.082 2.326-.102 6.869-.102 4.543 0 5.08.02 6.87.102 1.659.075 2.564.354 3.155.585.79.307 1.36.68 1.959 1.28.598.599.959 1.164 1.279 1.96.23.599.51 1.504.585 3.157.081 1.79.102 2.328.102 6.874 0 4.546-.02 5.084-.102 6.873-.075 1.661-.354 2.566-.585 3.158a5.296 5.296 0 01-1.28 1.96c-.599.6-1.163.96-1.959 1.28-.598.231-1.503.51-3.156.585-1.788.081-2.326.102-6.869.102-4.543 0-5.08-.02-6.87-.102-1.659-.075-2.563-.354-3.155-.585a5.29 5.29 0 01-1.959-1.28c-.599-.599-.959-1.163-1.279-1.96-.23-.599-.51-1.504-.585-3.157-.088-1.79-.102-2.335-.102-6.874z" fill="#fff"/></svg>