<svg width="34" height="34" fill="none" xmlns="http://www.w3.org/2000/svg"><path d="M13.536 33.999a.942.942 0 01-.336-.063c-.435-.167-.727-.63-.727-1.151v-11.05c0-.347.13-.677.359-.909l4.479-4.536-7.4 4.916a.953.953 0 01-1.01.038L.589 16.509C.21 16.295-.02 15.846 0 15.367c.02-.48.284-.902.676-1.076L32.55.085c.359-.165.77-.086 1.07.202.297.285.435.734.358 1.17l-5.543 31.567c-.068.382-.29.704-.602.866a.942.942 0 01-.966-.05l-8.888-5.784-3.594 5.46c-.206.31-.523.483-.85.483zm4.156-8.742a.96.96 0 01.526.159l8.422 5.481 4.87-27.743L3.683 15.558l5.655 3.222L25.474 8.06c.471-.318 1.076-.167 1.394.338.321.505.253 1.206-.156 1.62L14.598 22.284v6.87l2.246-3.41c.206-.316.525-.486.848-.486z" fill="#F5F7F8"/></svg>