<svg width="36" height="36" fill="none" xmlns="http://www.w3.org/2000/svg"><path d="M18 1C9.176 1 1 2.42 1 15.523c0 8.39 3.368 11.989 8.095 13.49v4.211a1.61 1.61 0 001.042 1.673 1.624 1.624 0 001.889-.576l3.788-4.308H18c8.824 0 17-1.404 17-14.523C35 2.372 26.824 1 18 1z" stroke="#F5F7F8" stroke-width="1.421" stroke-linecap="round" stroke-linejoin="round"/><path d="M18 12.295a2.43 2.43 0 011.718.71c.455.453.711 1.069.711 1.71m-2.428-8.874a8.92 8.92 0 016.296 2.6 8.86 8.86 0 012.608 6.275M18 9.068c1.503 0 2.945.595 4.007 1.654a5.638 5.638 0 011.66 3.994m-11.333 5.647c2.105 2.098 6.751 4.841 8.905 4.841a4.105 4.105 0 002.6-.894 4.081 4.081 0 001.447-2.333v-1.614s-1.991-.968-3.238-1.613c-1.247-.646-3.238 1.613-3.238 1.613a10.564 10.564 0 01-4.048-2.42 10.514 10.514 0 01-2.428-4.034s2.267-1.985 1.619-3.227c-.648-1.243-1.62-3.228-1.62-3.228h-1.618a4.098 4.098 0 00-2.341 1.442 4.074 4.074 0 00-.897 2.592c0 2.147 2.752 6.778 4.857 8.875z" stroke="#F5F7F8" stroke-width="1.421" stroke-linecap="round" stroke-linejoin="round"/></svg>