<svg width="80" height="94" fill="none" xmlns="http://www.w3.org/2000/svg"><path d="M11.331 2C-.347 3.266 1.368 29.725 3.66 36.989c5.29 16.78 19.899 30.133 34.928 28.04m0 0c5.67-.79 11.401-3.777 16.714-9.61 7.6-8.343 5.965-27.402-8.853-24.621-17.054 3.2-14.466 20.276-7.86 34.231zm0 0c3.204 6.77 7.353 12.804 10.664 16.164 4.036 4.096 13.353 7.694 20.912 7.173m0 0c2.408-.166 4.638-.75 6.461-1.869m-6.461 1.87c2.328-1.053 4.93-2.185 6.474-2.73m-6.474 2.73a239.58 239.58 0 00-3.796 1.754c-9.487 4.496 5.583-.262 8.706-2.016.905-.51 1.389-1.05 1.551-1.608m0 0c.28-.171.55-.355.81-.552 1.069-.812.524-.775-.797-.308m-.013.86a1.64 1.64 0 00.013-.86m0 0c-.696-2.886-8.298-5.975-9.532-7.18" stroke="#705A66" stroke-width="3" stroke-linecap="round"/></svg>