<svg width="253" height="151" fill="none" xmlns="http://www.w3.org/2000/svg"><path d="M118.376 6.57c-.922-6.455-3.798-5.166-8.067-1.685-13.02 10.617-20.805 25.68-28.986 40.067-10.74 18.886-19.706 38.66-29.962 57.797-7.183 13.402-15.903 28.796-29.164 37.142-7.73 4.865-17.456 2.597-19.591-7.18-2.747-12.577 4.256-24.962 12.676-33.685 12.278-12.72 27.02-17.352 43.436-22.427 5.33-1.648 12.561-2.988 16.577-7.003" stroke="#705A66" stroke-width="3" stroke-linecap="round"/><path d="M99.229 25.717c-2.277.569-5.26 6.35-6.205 7.89-6.77 11.02-11.888 23.25-16.976 35.103-10.792 25.141-19.287 51.044-26.283 77.475m26.328-31.912c18.778-10.899 36.625-24.576 51.857-40.112 4.215-4.3 14.537-13.185 14.537-19.99 0-6.904-14.226 5.718-14.715 6.161-18.689 16.96-36.084 38.617-43.258 63.248-.629 2.158-2.824 11.511 2.66 7.978 5.494-3.54 10.273-9.715 13.296-15.424 5.916-11.174-8.451-4.048-12.189-.31-1.316 1.316-3.628 4.427-1.285 6.072 3.433 2.411 9.772-1.177 12.809-2.571 6.716-3.081 13.527-6.063 20.078-9.485 1.95-1.018 6.963-4.893 5.895-2.969-1.491 2.684-7.281 10.956-.044 10.327 4.1-.357 7.962-3.322 11.39-5.319 2.95-1.717 10.2-4.614 10.682-8.776.965-8.321-16.212-1.075-18.349 1.596-1.617 2.021-2.02 5.018.31 6.648 3.475 2.433 8.557.293 12.011-1.063 5.321-2.089 10.33-4.963 15.469-7.447 2.298-1.11 6.258-3.636 8.82-1.772 2.676 1.946-1.611 7.78 3.546 6.471 3.672-.933 7.584-2.751 10.903-4.521.995-.531 6.286-5.089 7.535-4.521.729.331-1.044 1.423-.931 2.216.32 2.241 4.707 1.008 5.895.62 11.934-3.89 21.401-16.94 29.075-26.15" stroke="#705A66" stroke-width="3" stroke-linecap="round"/><path d="M232.462 58.426c-.36-1.62-14.964 16.638-16.532 19.28-6.5 10.951-11.966 22.484-16.976 34.173m3.989-40.688c14.394 1.91 28.734 4.156 43.081 6.383m-90.949 57.442c3.56-5.502 3.695 3.15 3.546 5.54-.15 2.396-1.24 5.752-.798 8.111.327 1.747 6.577-4.747 6.826-5.053 3.151-3.868 5.853-8.479 10.282-11.08 2.231-1.311 2.172 1.48 2.571 2.925 2.3 8.337 12.341 3.805 16.976.266 2.062-1.575 8.429-10.484 9.883-5.673 2.561 8.469 14.227 2.779 17.995-1.419 7.697-8.574-5.03-11.761-5.762-3.989-1.226 13.03 31.584.829 36.611-.797" stroke="#705A66" stroke-width="3" stroke-linecap="round"/></svg>