<svg width="800" height="800" viewBox="0 0 24 24" fill="none" xmlns="http://www.w3.org/2000/svg"><path d="M1.5 3.75a.75.75 0 000 1.5v-1.5zm21 1.5a.75.75 0 000-1.5v1.5zm-21 0h21v-1.5h-21v1.5z" fill="#705A66"/><path d="M9.75 1.5V.75v.75zM8.25 3H7.5h.75zM7.5 4.5a.75.75 0 001.5 0H7.5zm7.5 0a.75.75 0 001.5 0H15zm.75-1.5h.75-.75zM14.25.75h-4.5v1.5h4.5V.75zm-4.5 0a2.25 2.25 0 00-1.591.659l1.06 1.06a.75.75 0 01.531-.219V.75zm-1.591.659A2.25 2.25 0 007.5 3H9a.75.75 0 01.22-.53L8.159 1.409zM7.5 3v1.5H9V3H7.5zm9 1.5V3H15v1.5h1.5zm0-1.5a2.25 2.25 0 00-.659-1.591l-1.06 1.06c.14.141.219.332.219.531h1.5zm-.659-1.591A2.25 2.25 0 0014.25.75v1.5a.75.75 0 01.53.22l1.061-1.061zM9 17.25a.75.75 0 001.5 0H9zm1.5-7.5a.75.75 0 00-1.5 0h1.5zm0 7.5v-7.5H9v7.5h1.5zm3 0a.75.75 0 001.5 0h-1.5zm1.5-7.5a.75.75 0 00-1.5 0H15zm0 7.5v-7.5h-1.5v7.5H15zm3.865 3.874l-.747-.062.747.062zM17.37 22.5v-.75.75zm-10.739 0v-.75.75zm-1.495-1.376l.747-.062-.747.062zM4.497 4.438a.75.75 0 00-1.494.124l1.494-.124zm16.5.124a.75.75 0 10-1.494-.124l1.494.124zm-2.88 16.5a.75.75 0 01-.239.49l1.016 1.104a2.25 2.25 0 00.718-1.47l-1.494-.124zm-.239.49a.75.75 0 01-.508.198v1.5a2.25 2.25 0 001.524-.595l-1.016-1.103zm-.508.198H6.631v1.5H17.37v-1.5zm-10.74 0a.75.75 0 01-.507-.198l-1.016 1.104c.416.382.96.594 1.524.594v-1.5zm-.507-.198a.75.75 0 01-.24-.49l-1.494.124a2.25 2.25 0 00.718 1.47l1.016-1.104zm-.24-.49L4.497 4.438l-1.494.124 1.386 16.624 1.494-.124zm13.62-16.624l-1.385 16.624 1.494.124 1.385-16.624-1.494-.124z" fill="#705A66"/></svg>