<svg xmlns="http://www.w3.org/2000/svg" width="256" height="256" viewBox="0 0 100 100"><rect width="100" height="100" rx="50" fill="#705a66"/><path fill="#fff" d="M43.66 86.27q-4.69 0-8.51-2.66-3.83-2.65-6.08-7.64-2.25-5-2.25-12.02 0-6.93 2.16-14.04 2.16-7.11 5.9-13.59 3.73-6.48 8.5-11.56 4.78-5.09 10.04-8.06 5.26-2.97 10.39-2.97 3.42 0 5.5 1.44 2.07 1.44 2.97 3.74.89 2.29.89 4.99 0 3.15-1.08 6.16-1.07 3.02-2.87 5-1.81 1.98-3.97 1.98-.72 0-1.48-.45-.77-.45-1.31-1.62 1.26-.9 2.93-3.24 1.67-2.34 2.88-5.22t1.21-5.31q0-2.07-1.21-3.42t-4.18-1.35q-3.88 0-8.06 3.15-4.19 3.15-8.1 8.41-3.91 5.27-7.07 11.75-3.15 6.48-4.99 13.23-1.85 6.75-1.85 12.78 0 8.19 3.43 12.83 3.41 4.63 8.63 4.63 3.51 0 6.66-2.57 3.15-2.56 5.58-6.66 2.43-4.09 3.92-8.86 1.48-4.77 1.85-9.18-3.34-.72-5.41-.95-2.07-.22-3.87-.22-1.17 0-2.47.04-1.31.05-3.01.05.62-2.61 2.2-3.64 1.57-1.04 3.91-1.04 2.52 0 5.27.85 2.74.86 5.35 1.85 2.61.99 4.6 1.53l-.63 2.88q-1.72 4.5-2.8 7.87-1.07 3.38-1.66 5.95-.59 2.56-.81 4.54-.23 1.98-.23 3.6 0 1.8.14 3.51.14 1.71.22 3.51-1.44-.63-2.56-1.49-1.13-.85-1.71-2.11-.59-1.26-.59-2.88 0-.99.14-1.98.13-.99.49-2.16-3.24 4.5-7.47 7.56-4.23 3.06-9.53 3.06z"/></svg>