<svg width="24" height="24" fill="none" xmlns="http://www.w3.org/2000/svg"><path d="M23.933 7.054c-.058-1.278-.264-2.152-.557-2.916a5.852 5.852 0 00-1.383-2.123A5.887 5.887 0 0019.871.63c-.763-.298-1.637-.5-2.914-.557-1.282-.058-1.69-.072-4.945-.072-3.26 0-3.668.014-4.945.072C5.79.132 4.917.338 4.153.63a5.824 5.824 0 00-2.127 1.384A5.891 5.891 0 00.643 4.138C.35 4.902.144 5.776.086 7.054.03 8.336.014 8.744.014 12.002c0 3.262.015 3.67.072 4.948.058 1.278.264 2.152.557 2.916a5.85 5.85 0 001.383 2.123 5.784 5.784 0 002.122 1.383c.763.298 1.637.5 2.914.558 1.282.057 1.69.072 4.945.072 3.26 0 3.668-.015 4.945-.072 1.277-.058 2.151-.264 2.914-.558a5.845 5.845 0 002.122-1.383 5.891 5.891 0 001.383-2.123c.298-.764.5-1.638.557-2.916.058-1.283.072-1.691.072-4.948 0-3.257-.01-3.67-.067-4.948zm-2.156 9.8c-.053 1.172-.25 1.81-.413 2.229-.216.557-.48.96-.902 1.383a3.818 3.818 0 01-1.383.903c-.422.164-1.061.36-2.228.413-1.262.058-1.642.073-4.849.073-3.207 0-3.586-.015-4.849-.073-1.171-.052-1.81-.25-2.227-.413a3.735 3.735 0 01-1.383-.903 3.82 3.82 0 01-.902-1.383c-.164-.423-.36-1.062-.413-2.23-.058-1.263-.072-1.642-.072-4.851 0-3.21.014-3.589.072-4.852.052-1.172.25-1.811.413-2.229.216-.557.48-.96.902-1.384a3.817 3.817 0 011.383-.903c.422-.163 1.06-.36 2.227-.413 1.263-.057 1.642-.072 4.85-.072 3.206 0 3.586.015 4.848.072 1.172.053 1.81.25 2.228.413.557.217.96.48 1.383.903.422.423.677.822.902 1.384.163.423.36 1.062.413 2.229.058 1.263.072 1.643.072 4.852 0 3.209-.019 3.588-.072 4.852z" fill="#705A66"/><path d="M12.002 5.834a6.164 6.164 0 00-6.164 6.168 6.164 6.164 0 1012.328 0 6.16 6.16 0 00-6.164-6.168zm0 10.17a4 4 0 01-4-4.002 4 4 0 014-4.002 4 4 0 014 4.002 4 4 0 01-4 4.002zm6.405-8.969a1.44 1.44 0 100-2.882 1.44 1.44 0 000 2.882z" fill="#705A66"/><path d="M0 12.002c0 3.262.014 3.67.072 4.948.058 1.278.264 2.152.557 2.916a5.85 5.85 0 001.383 2.123 5.845 5.845 0 002.122 1.383c.763.298 1.637.5 2.914.558 1.282.057 1.69.072 4.945.072 3.26 0 3.668-.015 4.945-.072 1.277-.058 2.15-.264 2.914-.558a5.845 5.845 0 002.122-1.383 5.851 5.851 0 001.383-2.123c.297-.764.499-1.638.557-2.916.057-1.283.072-1.691.072-4.948 0-3.262-.015-3.67-.072-4.948-.058-1.278-.265-2.152-.557-2.916a5.852 5.852 0 00-1.383-2.123A5.73 5.73 0 0019.857.63c-.764-.298-1.637-.5-2.914-.557-1.282-.058-1.69-.072-4.945-.072-3.26 0-3.668.014-4.945.072C5.776.132 4.902.338 4.138.63a5.847 5.847 0 00-2.122 1.384A5.891 5.891 0 00.634 4.138C.336 4.902.13 5.776.072 7.054.014 8.332 0 8.74 0 12.002zm2.165 0c0-3.204.015-3.589.072-4.852.053-1.172.25-1.811.413-2.229.216-.557.48-.96.903-1.384a3.817 3.817 0 011.382-.903c.423-.163 1.061-.36 2.228-.413 1.263-.057 1.642-.072 4.849-.072 3.207 0 3.586.015 4.849.072 1.171.053 1.81.25 2.228.413.556.217.96.48 1.382.903.423.423.677.822.903 1.384.163.423.36 1.062.413 2.229.057 1.263.072 1.643.072 4.852 0 3.209-.015 3.588-.072 4.852-.053 1.172-.25 1.81-.413 2.229-.216.557-.48.96-.903 1.383a3.818 3.818 0 01-1.382.903c-.423.164-1.061.36-2.228.413-1.263.058-1.642.073-4.849.073-3.207 0-3.586-.015-4.849-.073-1.171-.052-1.81-.25-2.228-.413a3.735 3.735 0 01-1.382-.903 3.82 3.82 0 01-.903-1.383c-.163-.423-.36-1.062-.413-2.23-.062-1.263-.072-1.647-.072-4.851z" fill="#705A66"/></svg>