<svg width="24" height="21" fill="none" xmlns="http://www.w3.org/2000/svg"><path d="M9.555 21.001a.75.75 0 01-.75-.75v-6.825c0-.215.092-.419.253-.562l3.162-2.802L6.996 13.1a.755.755 0 01-.712.023l-5.87-2.925a.75.75 0 01.063-1.37l22.5-8.774A.75.75 0 0123.985.9l-3.913 19.5a.75.75 0 01-1.107.503l-6.273-3.573-2.537 3.373a.754.754 0 01-.6.298zm2.934-5.4c.127 0 .254.032.37.098l5.945 3.386 3.44-17.136L2.6 9.61l3.992 1.99 11.39-6.622a.747.747 0 01.983.21.749.749 0 01-.11 1l-8.55 7.576v4.244l1.585-2.107a.748.748 0 01.599-.3z" fill="#705A66"/></svg>