<svg width="170" height="101" fill="none" xmlns="http://www.w3.org/2000/svg"><path d="M10.726 2.718C5.046 13.322-.505 28.5 3.502 40.523c7.346 22.037 29.316 32.113 51.41 29.738 26.585-2.859 44.768-25.271 49.122-50.567 1.065-6.19 1.506-19.986-8.729-17.94-6.754 1.351-12.57 15.92-14.447 21.19-5.455 15.307-6.302 36.463-1.264 51.952 3.076 9.462 8.908 19.795 19.143 22.755 12.48 3.61 28.367-.802 37.985-9.15 13.808-11.984 22.913-31.03 28.896-47.979 1.722-4.88 1.558-4.891 2.106-8.728.06-.42.121.84.121 1.264" stroke="#705A66" stroke-width="3" stroke-linecap="round"/></svg>