<svg width="102" height="70" fill="none" xmlns="http://www.w3.org/2000/svg"><g clip-path="url(#clip0_7_330)"><path fill-rule="evenodd" clip-rule="evenodd" d="M23.94 10.62l3.942.075-8.724 28.461a30.106 30.106 0 01.067.017c-7.654-1.7-13.979.78-19.225 6.678l6.533 3.047 27.75 12.954c.215-1.684.315-3.261.282-4.748.008.214.024.435.024.657h31.85c.009 6.76 5.554 12.23 12.385 12.23 6.832 0 12.377-5.478 12.385-12.23h10.426c.722-14.021-5.969-24.806-17.69-25.841h15.772c1.254 0 2.275-1.019 2.275-2.25v-2.473c0-1.224-1.013-2.218-2.242-2.218h-.199V8.042c0-1.11-.921-2.021-2.042-2.021H68.124c-1.12 0-2.041.912-2.041 2.02v16.93H51.555c-1.535-.05-2.349.64-2.357 2.16v7.935c6.54 5.092 7.537 13.052 1.569 17.537h-9.68c-.248-7.631-4.656-12.28-11.977-17.422l4.366-13.315c1.801-4.14.614-7.278-2.017-9.47.822-2.613 1.411-4.847 1.228-6.67l4.574.936c1.486.304 1.868.83 2.35-.592.082-.246.149-.484.19-.73.374-1.947.141-1.816-1.452-2.12l-4.881-.936h-1.453l-1.793-.994a9.031 9.031 0 00-3.32-1.117L25.334.074c-1.61 0-3.42-.444-4.35 1.027-.016.024-.025.115-.033.246-.656.222-1.22.707-1.643 1.372-.523.805-.839 1.906-.839 3.105 0 1.2.324 2.3.839 3.105.58.903 1.42 1.478 2.382 1.503.556.394 1.436.172 2.25.189zm61.666 9.398h10.343v1.799H85.606v-1.8zm-7.86-12.231h7.47v8.033l-3.918-3.006-3.553 3.006V7.787zm7.86 16.913h10.343v1.799H85.606v-1.8zM6.566 48.923l11.04 5.175-3.586-1.627c-2.465.518-4.308 2.686-4.308 5.274 0 2.982 2.44 5.396 5.454 5.396 3.013 0 5.453-2.414 5.453-5.396 0-.92-.232-1.783-.639-2.547l7.537 3.532C27.011 65.04 21.673 70 15.174 70c-6.84 0-12.385-5.487-12.385-12.255-.017-3.466 1.436-6.596 3.777-8.822zM20.976 3.45c.05 1.577.158 3.606.233 4.97a1.936 1.936 0 01-.382-.452c-.349-.534-.557-1.298-.557-2.152 0-.855.216-1.619.557-2.152.05-.074.1-.148.15-.214zM73.38 57.761h10.907c-.008 2.974-2.449 5.372-5.454 5.372-3.004 0-5.445-2.398-5.453-5.372z" fill="#DDD5C6"/></g><defs><clipPath id="clip0_7_330"><path fill="#fff" d="M0 0h102v70H0z"/></clipPath></defs></svg>