<svg width="80" height="79" fill="none" xmlns="http://www.w3.org/2000/svg"><g clip-path="url(#clip0_7_335)"><path d="M19.414 5.835a1.654 1.654 0 00-1.68 1.653v3.75l-4.85 4.85V5.459a4.499 4.499 0 011.309-3.178 4.557 4.557 0 013.17-1.302h58.158a4.557 4.557 0 013.17 1.302 4.629 4.629 0 011.302 3.164v47.774c0 1.191-.292 2.565-1.302 3.17a4.505 4.505 0 01-3.164 1.302h-35.37a14.324 14.324 0 00-1.055-3.327l1.562-1.556H73.51a1.654 1.654 0 001.64-1.647V7.488a1.654 1.654 0 00-1.653-1.653h-8.984v17.207l-9.492-4.746-9.447 4.746V5.835h-26.16zM6.081 51.564L4.01 63.283a.918.918 0 01-.196.416 4.557 4.557 0 00-1.048 2.136 1.185 1.185 0 00.325 1.185l7.507 7.526a3.43 3.43 0 001.823.93 4.602 4.602 0 002.441.072h.059l1.413-.351c2.168-.528 4.056-.996 5.813-2.604l2.253-2.35a.745.745 0 01.091-.111c.033 0 .254-.254.554-.534 1.536-1.51 3.45-3.373 2.285-5l-.905-.905c-.436.423-.899.833-1.341 1.237-.443.403-.788.69-1.14 1.041a.953.953 0 01-1.347-1.347c.345-.352.78-.736 1.224-1.133 1.53-1.341 3.255-2.884 2.337-4.232l-.892-.892-.13-.162c-.515.527-1.081 1.028-1.634 1.517-.404.358-.782.69-1.133 1.041a.957.957 0 01-1.63-.674.943.943 0 01.282-.673c.345-.352.781-.736 1.224-1.127 1.53-1.347 3.255-2.89 2.337-4.238l-.892-.892a1.154 1.154 0 01-.156-.208l-2.604 2.604a.953.953 0 01-1.348-1.348l4.916-4.915c1.178-1.179 1.445-2.403 1.139-3.334-.11-.338 0-.345-.247-.585a2.17 2.17 0 00-.41-.32c-.072 0-.124-.038-.196-.11a1.807 1.807 0 00-.26-.104c-.814-.274-1.589.208-2.656 1.113l-.046.04a5.151 5.151 0 00-.352.318L11.243 56.538a.957.957 0 01-1.627-.605.944.944 0 01.189-.639l-3.724-3.73zm6.159.703l.332-.325 6.725-6.732a6.562 6.562 0 117.344-1.354l-.065.065c.053.044.103.092.15.143.207.197.392.415.553.651l8.346-8.314a3.307 3.307 0 010-4.655l-6.217-6.217a3.288 3.288 0 01-4.649 0L7.461 42.827a3.307 3.307 0 010 4.655l4.779 4.785zm14.674-2.214a6.82 6.82 0 01-.794.925l-.97.977c.075.043.145.096.208.156l.931.937c.05.052.096.11.137.17a3.21 3.21 0 01.17 3.906.95.95 0 01.344.221l.931.931c.051.054.097.113.137.176a3.255 3.255 0 010 4.134.771.771 0 01.117.098l.931.93c.05.056.095.115.137.177 2.168 2.962-.417 5.475-2.494 7.506l-.534.534-2.31 2.428-.079.072c-2.116 1.953-4.219 2.435-6.647 3.027l-1.387.345h-.039a8.269 8.269 0 01-3.574.254A5.274 5.274 0 019.297 76.5L1.23 68.393a2.995 2.995 0 01-.872-2.91 7.695 7.695 0 011.595-3.053l2.123-12.22v-.052c0-.15.052-.32.084-.508L0 45.496l27.448-27.448 15.736 15.736L26.908 50.06l.006-.007z" fill="#DDD5C6"/></g><defs><clipPath id="clip0_7_335"><path fill="#fff" transform="translate(0 .978)" d="M0 0h80v77.044H0z"/></clipPath></defs></svg>