<svg width="86" height="86" fill="none" xmlns="http://www.w3.org/2000/svg"><path fill-rule="evenodd" clip-rule="evenodd" d="M18.813 64.537a2.687 2.687 0 100 5.375h16.125a2.687 2.687 0 000-5.375H18.811z" fill="#DDD5C6"/><path fill-rule="evenodd" clip-rule="evenodd" d="M16.125 5.412a2.688 2.688 0 00-2.404 1.49l-8.063 16.22c-.17.354-.262.74-.267 1.134a2.76 2.76 0 00-.016.063v53.655a2.688 2.688 0 002.687 2.688h69.875a2.688 2.688 0 002.688-2.688V24.313a2.687 2.687 0 00-.284-1.191L72.28 6.902a2.689 2.689 0 00-2.404-1.49h-53.75zm1.659 5.375H34.47L32.712 21.63H12.398l5.386-10.844zm22.124 0h11.564l1.81 10.844H38.156l1.753-10.844zm17.012 0h11.291l5.39 10.844h-14.87l-1.81-10.844zm-46.17 16.22h21.5v26.78a2.687 2.687 0 004.588 1.9l8.85-8.85 8.85 8.85a2.688 2.688 0 004.587-1.9v-26.78H75.25v48.28h-64.5v-48.28zm26.875 0H53.75v20.292l-6.162-6.163a2.688 2.688 0 00-3.8 0L37.624 47.3V27.006z" fill="#DDD5C6"/></svg>